<svg width="56" height="31" fill="none" xmlns="http://www.w3.org/2000/svg"><path d="M1 10.643V7.027A6.025 6.025 0 007.027 1h41.946A6.007 6.007 0 0055 7.027v3.616M55 19.472v3.616a6.007 6.007 0 00-6.027 6.026H7.027A6.025 6.025 0 001 23.088v-3.616M1 19.472a4.415 4.415 0 000-8.83M55 19.472a4.413 4.413 0 110-8.83M11.067 1v5.021M44.86 1v5.021M11.067 24.094v5.02M44.86 24.094v5.02M11.067 13.094v5.02M44.86 13.094v5.02" stroke="#000" stroke-width="2" stroke-linecap="round" stroke-linejoin="round"/><path d="M40.474 6.021H15.527v18.073h24.947V6.021z" stroke="#000" stroke-width="2" stroke-linecap="round" stroke-linejoin="round"/></svg>