<svg width="56" height="56" fill="none" xmlns="http://www.w3.org/2000/svg"><path d="M52.001 1h-48a3 3 0 00-3 3v28.957a3 3 0 003 3h48a3 3 0 003-3V4a3 3 0 00-3-3zM14.501 54.909a6.879 6.879 0 00-6.75-7 6.878 6.878 0 00-6.75 7M21.251 47.909a6.879 6.879 0 00-6.75-7 6.878 6.878 0 00-6.75 7M34.751 47.909a6.753 6.753 0 10-13.5 0M48.251 47.909a6.753 6.753 0 10-13.5 0M55.001 54.909a6.753 6.753 0 10-13.5 0M41.501 54.909a6.753 6.753 0 10-13.5 0" stroke="#000" stroke-width="2" stroke-linecap="round" stroke-linejoin="round"/><path d="M28.001 54.909a6.879 6.879 0 00-6.75-7 6.878 6.878 0 00-6.75 7M55.001 54.909h-54" stroke="#000" stroke-width="2" stroke-linecap="round" stroke-linejoin="round"/></svg>